<?xml version="1.0" encoding="utf-8"?>
<!-- Generator: Adobe Illustrator 27.4.1, SVG Export Plug-In . SVG Version: 6.00 Build 0)  -->
<svg version="1.1" id="Layer_1" xmlns="http://www.w3.org/2000/svg" xmlns:xlink="http://www.w3.org/1999/xlink" x="0px" y="0px"
	 viewBox="0 0 1880.6 1554.7" style="enable-background:new 0 0 1880.6 1554.7;" xml:space="preserve">
<style type="text/css">
	.st0{fill:url(#SVGID_1_);}
	.st1{fill:#222126;}
	
		.st2{clip-path:url(#SVGID_00000001624574103369656720000001484032750899369385_);fill:url(#SVGID_00000072980684727663004220000001868610875034732678_);}
	
		.st3{clip-path:url(#SVGID_00000059292532019482357400000014648867635215345794_);fill:url(#SVGID_00000172400242913753140060000016554710320817553800_);}
	.st4{fill:url(#SVGID_00000098198177329458733710000002739841046395741329_);}
	.st5{clip-path:url(#SVGID_00000113320050256688725980000008237785253320610723_);fill:#807F85;}
	.st6{clip-path:url(#SVGID_00000140730933961979614310000001632159627339076024_);fill:#706F75;}
	.st7{clip-path:url(#SVGID_00000012451722286303349540000002531559534187874238_);fill:#6C6B71;fill-opacity:0.5485;}
	.st8{fill:url(#SVGID_00000093153374242974309710000006276826438729583243_);}
	.st9{fill:#010101;}
	
		.st10{clip-path:url(#SVGID_00000176758755880326043880000014839093283750809519_);fill:url(#SVGID_00000011753221822079329200000007799442102114541969_);}
	.st11{clip-path:url(#SVGID_00000110468730586944385560000004801620428478220718_);fill:#807F85;}
	.st12{fill:url(#SVGID_00000157992268332769302920000016278032364157421742_);}
	.st13{fill:url(#SVGID_00000090984126315809254520000006731368422768088762_);}
	.st14{fill:url(#SVGID_00000158740148642794915340000016644225067681572007_);}
	.st15{fill:url(#SVGID_00000130613952121979736710000015945964066218315704_);}
</style>
<g>
	
		<linearGradient id="SVGID_1_" gradientUnits="userSpaceOnUse" x1="3915.2937" y1="-238.0913" x2="3915.2937" y2="-243.0602" gradientTransform="matrix(1 0 0 -1 -2975.2937 1312.3716)">
		<stop  offset="0" style="stop-color:#1F1F1F"/>
		<stop  offset="1" style="stop-color:#BEBEBE"/>
	</linearGradient>
	<path class="st0" d="M674.7,1541.7c-2.1-0.2-13.9,8.3-15.6,8c6.3,3.5,18.6,5.4,42.2,4.9H940h238.7c23.7,0.4,35.9-1.4,42.2-4.9
		c-1.7,0.3-13.5-8.2-15.6-8c-3.4,0.3-31.5,5.4-32.6,5.4l-245.7-3.9l6.3,5.5l-225.9-1.6C706.2,1547.1,678,1542,674.7,1541.7
		L674.7,1541.7z"/>
	<path class="st1" d="M946.5,1526.9l-293.4,11.4c-0.4,4.7,0.9,8.6,6,11.4c1.7,0.3,3.4,0.6,5.5,0.8c3.4,0.3,7.2,0.5,11.6,0.5h264h264
		c4.4,0,8.2-0.2,11.6-0.5c2.1-0.2,3.7-0.5,5.5-0.8c5.1-2.8,6.3-6.6,6-11.4l-281.8-6.4L946.5,1526.9z"/>
	<g>
		<defs>
			<path id="SVGID_00000098909147977771932710000012554347864062355843_" d="M940,1531.8v19.1h264c4.4,0,8.2-0.2,11.6-0.5
				c2.1-0.2,3.7-0.5,5.5-0.8c5.1-2.8,6.3-6.6,6-11.4L940,1531.8z"/>
		</defs>
		<clipPath id="SVGID_00000135665255695421774500000018122545091366845348_">
			<use xlink:href="#SVGID_00000098909147977771932710000012554347864062355843_"  style="overflow:visible;"/>
		</clipPath>
		
			<linearGradient id="SVGID_00000120534533316919084000000001081300227245566124_" gradientUnits="userSpaceOnUse" x1="-1604.9408" y1="-9.8752" x2="-1582.2991" y2="-9.8752" gradientTransform="matrix(-1 0 0 -1 -378.0002 1531.9993)">
			<stop  offset="0" style="stop-color:#A8A7AD;stop-opacity:0"/>
			<stop  offset="0.2004" style="stop-color:#A8A7AD"/>
			<stop  offset="0.4411" style="stop-color:#A8A7AD"/>
			<stop  offset="1" style="stop-color:#A8A7AD;stop-opacity:0"/>
		</linearGradient>
		
			<rect x="1152.1" y="1522.8" style="clip-path:url(#SVGID_00000135665255695421774500000018122545091366845348_);fill:url(#SVGID_00000120534533316919084000000001081300227245566124_);" width="74.8" height="38.1"/>
	</g>
	<g>
		<defs>
			<path id="SVGID_00000107549382982390683190000000945800914601663377_" d="M940,1531.8v19.1H676c-4.4,0-8.2-0.2-11.6-0.5
				c-2.1-0.2-3.7-0.5-5.5-0.8c-5.1-2.8-6.3-6.6-6-11.4L940,1531.8z"/>
		</defs>
		<clipPath id="SVGID_00000130613679672873228860000009784353281145543826_">
			<use xlink:href="#SVGID_00000107549382982390683190000000945800914601663377_"  style="overflow:visible;"/>
		</clipPath>
		
			<linearGradient id="SVGID_00000156576388607922662730000010628022323216808335_" gradientUnits="userSpaceOnUse" x1="-1566.9408" y1="-9.8752" x2="-1544.2991" y2="-9.8752" gradientTransform="matrix(1 0 0 -1 2219.9988 1531.9993)">
			<stop  offset="0" style="stop-color:#A8A7AD;stop-opacity:0"/>
			<stop  offset="0.2004" style="stop-color:#A8A7AD"/>
			<stop  offset="0.4411" style="stop-color:#A8A7AD"/>
			<stop  offset="1" style="stop-color:#A8A7AD;stop-opacity:0"/>
		</linearGradient>
		
			<rect x="653.1" y="1522.8" style="clip-path:url(#SVGID_00000130613679672873228860000009784353281145543826_);fill:url(#SVGID_00000156576388607922662730000010628022323216808335_);" width="74.8" height="38.1"/>
	</g>
</g>
<g transform="translate(-340.00073,-22.000949)">
	
		<linearGradient id="SVGID_00000083776575947129449180000007589015215962897585_" gradientUnits="userSpaceOnUse" x1="1884.9072" y1="250.7407" x2="1884.9072" y2="8.7063" gradientTransform="matrix(1 0 0 -1 -604.9071 1576.001)">
		<stop  offset="0" style="stop-color:#19181D"/>
		<stop  offset="0.3414" style="stop-color:#242328"/>
		<stop  offset="0.6726" style="stop-color:#1E1D22"/>
		<stop  offset="0.7745" style="stop-color:#2C2B30"/>
		<stop  offset="0.9125" style="stop-color:#2E2D32"/>
		<stop  offset="1" style="stop-color:#2E2D32"/>
	</linearGradient>
	<path style="fill:url(#SVGID_00000083776575947129449180000007589015215962897585_);" d="M1280,1269.3l-189.2,5.9
		c1.5,55.4-3.9,117.8-11.6,174.4c-1.6,12-3.2,25.1-6,37.8c-3.7,14.6-9.5,23.8-17.9,30.6c-7,5.6-16,9.4-24.3,14
		c-12.3,6.8-22.5,13.6-29.2,19c-2.8,2.3-6,4.9-8.3,8.1c-0.3,0.5-0.5,1-0.5,1.4c0,1.7,2.5,2.8,4.6,3.6c7,2.3,20,3,35.6,3.2
		c8.4,0.1,18.6-0.1,27.9-0.1h437.6c9.3-0.1,19.5,0.1,27.9,0.1c15.6-0.1,28.6-0.9,35.6-3.2c2.2-0.8,4.6-1.8,4.6-3.6
		c0-0.4-0.1-0.9-0.5-1.4c-2.4-3.2-5.5-5.8-8.3-8.1c-6.7-5.4-16.8-12.2-29.2-19c-8.3-4.7-17.4-8.4-24.3-14
		c-8.3-6.8-14.2-16-17.9-30.6c-2.8-12.7-4.4-25.8-6-37.8c-7.7-56.6-13.1-119-11.6-174.4L1280,1269.3z"/>
</g>
<g>
	<defs>
		<path id="SVGID_00000041998241544957535320000004740689927931750329_" d="M940,1247.3l-189.2,5.9c1.5,55.4-3.9,117.8-11.6,174.4
			c-1.6,12-3.2,25.1-6,37.8c-3.7,14.6-9.5,23.8-17.9,30.6c-7,5.6-16,9.4-24.3,14c-12.3,6.8-22.5,13.6-29.2,19
			c-2.8,2.3-6,4.9-8.3,8.1c-0.3,0.5-0.5,1-0.5,1.4c0,1.7,2.5,2.8,4.6,3.6c7,2.3,20,3,35.6,3.2c8.4,0.1,18.6-0.1,27.9-0.1h437.6
			c9.3-0.1,19.5,0.1,27.9,0.1c15.6-0.1,28.6-0.9,35.6-3.2c2.2-0.8,4.6-1.8,4.6-3.6c0-0.4-0.1-0.9-0.5-1.4c-2.4-3.2-5.5-5.8-8.3-8.1
			c-6.7-5.4-16.8-12.2-29.2-19c-8.3-4.7-17.4-8.4-24.3-14c-8.3-6.8-14.2-16-17.9-30.6c-2.8-12.7-4.4-25.8-6-37.8
			c-7.7-56.6-13.1-119-11.6-174.4L940,1247.3z"/>
	</defs>
	<clipPath id="SVGID_00000035523043420587806180000018043827669881655183_">
		<use xlink:href="#SVGID_00000041998241544957535320000004740689927931750329_"  style="overflow:visible;"/>
	</clipPath>
	<path style="clip-path:url(#SVGID_00000035523043420587806180000018043827669881655183_);fill:#807F85;" d="M653.1,1476.1
		c31.4-4.7,58.2,5.7,82.9,16c-98.9,40.7,65.9,50.5,47.5,64.4c-18.4,13.9-145.1,33.6-163.6,44.1l9.6-93.7L653.1,1476.1z"/>
</g>
<g transform="translate(879.91218,-22.000949)">
	<g>
		<defs>
			<path id="SVGID_00000174578667379693533690000004480074989599582627_" d="M60.1,1269.3l-189.2,5.9c1.5,55.4-3.9,117.8-11.6,174.4
				c-1.6,12-3.2,25.1-6,37.8c-3.7,14.6-9.5,23.8-17.9,30.6c-7,5.6-16,9.4-24.3,14c-12.3,6.8-22.5,13.6-29.2,19
				c-2.8,2.3-6,4.9-8.3,8.1c-0.3,0.5-0.5,1-0.5,1.4c0,1.7,2.5,2.8,4.6,3.6c7,2.3,20,3,35.6,3.2c8.4,0.1,18.6-0.1,27.9-0.1h437.6
				c9.3-0.1,19.5,0.1,27.9,0.1c15.6-0.1,28.6-0.9,35.6-3.2c2.2-0.8,4.6-1.8,4.6-3.6c0-0.4-0.1-0.9-0.5-1.4c-2.4-3.2-5.5-5.8-8.3-8.1
				c-6.7-5.4-16.8-12.2-29.2-19c-8.3-4.7-17.4-8.4-24.3-14c-8.3-6.8-14.2-16-17.9-30.6c-2.8-12.7-4.4-25.8-6-37.8
				c-7.7-56.6-13.1-119-11.6-174.4L60.1,1269.3z"/>
		</defs>
		<clipPath id="SVGID_00000095326264756811141710000004935207669788832951_">
			<use xlink:href="#SVGID_00000174578667379693533690000004480074989599582627_"  style="overflow:visible;"/>
		</clipPath>
		<path style="clip-path:url(#SVGID_00000095326264756811141710000004935207669788832951_);fill:#706F75;" d="M60.1,1430.2
			L60.1,1430.2c139.7,0,252.9,10.7,252.9,24l0,0c0,13.2-113.2,24-252.9,24l0,0c-139.7,0-252.9-10.7-252.9-24l0,0
			C-192.8,1440.9-79.6,1430.2,60.1,1430.2z"/>
	</g>
</g>
<g>
	<defs>
		<path id="SVGID_00000139978320720381512140000015654646016710330264_" d="M940,1247.3l-189.2,5.9c1.5,55.4-3.9,117.8-11.6,174.4
			c-1.6,12-3.2,25.1-6,37.8c-3.7,14.6-9.5,23.8-17.9,30.6c-7,5.6-16,9.4-24.3,14c-12.3,6.8-22.5,13.6-29.2,19
			c-2.8,2.3-6,4.9-8.3,8.1c-0.3,0.5-0.5,1-0.5,1.4c0,1.7,2.5,2.8,4.6,3.6c7,2.3,20,3,35.6,3.2c8.4,0.1,18.6-0.1,27.9-0.1h437.6
			c9.3-0.1,19.5,0.1,27.9,0.1c15.6-0.1,28.6-0.9,35.6-3.2c2.2-0.8,4.6-1.8,4.6-3.6c0-0.4-0.1-0.9-0.5-1.4c-2.4-3.2-5.5-5.8-8.3-8.1
			c-6.7-5.4-16.8-12.2-29.2-19c-8.3-4.7-17.4-8.4-24.3-14c-8.3-6.8-14.2-16-17.9-30.6c-2.8-12.7-4.4-25.8-6-37.8
			c-7.7-56.6-13.1-119-11.6-174.4L940,1247.3z"/>
	</defs>
	<clipPath id="SVGID_00000125598290133829258080000018135639500492280238_">
		<use xlink:href="#SVGID_00000139978320720381512140000015654646016710330264_"  style="overflow:visible;"/>
	</clipPath>
	<path style="clip-path:url(#SVGID_00000125598290133829258080000018135639500492280238_);fill:#6C6B71;fill-opacity:0.5485;" d="
		M722.4,1431.8h435.7c139.7,0,252.9,9.3,252.9,20.8v0c0,11.5-113.2,20.8-252.9,20.8H722.4c-139.7,0-252.9-9.3-252.9-20.8v0
		C469.5,1441.1,582.8,1431.8,722.4,1431.8z"/>
</g>
<g>
	<g transform="translate(-340.00073,-22.000949)">
		<path d="M340,1139.8v45.2v64.7c0,49,18.9,62.3,62.3,62.3h133.5h10.1h1482.4h129.4c43.4,0,62.3-13.3,62.3-62.3v-109.9L340,1139.8z"
			/>
	</g>
	
		<linearGradient id="SVGID_00000116227510056736395890000013707528551009122947_" gradientUnits="userSpaceOnUse" x1="171.4617" y1="352.3928" x2="1773.7581" y2="352.3928" gradientTransform="matrix(1 0 0 -1 0 1554)">
		<stop  offset="0" style="stop-color:#201F24"/>
		<stop  offset="1" style="stop-color:#353439"/>
	</linearGradient>
	<path style="fill:url(#SVGID_00000116227510056736395890000013707528551009122947_);" d="M0,1115.5v45.2v64.7
		c0,49,19,62.3,62.3,62.3h133.5h10.1h1482.9h129.4c43.4,0,62.3-13.3,62.3-62.3v-109.9L0,1115.5z"/>
	<g transform="translate(-340.00073,-22.000949)">
		<g>
			<path class="st9" d="M1280.8,1199.8c1.6,0,4.2-0.6,7.8-1.9c3.6-1.2,6.8-1.9,9.4-1.9c4.4,0,8.3,1.2,11.7,3.5
				c1.9,1.3,3.8,3.2,5.7,5.5c-2.8,2.4-4.9,4.6-6.2,6.4c-2.4,3.4-3.6,7.2-3.6,11.3c0,4.5,1.3,8.6,3.8,12.2c2.5,3.6,5.4,5.9,8.6,6.9
				c-1.3,4.4-3.6,8.9-6.7,13.7c-4.7,7.1-9.4,10.7-14.1,10.7c-1.8,0-4.4-0.6-7.6-1.8c-3.3-1.2-6-1.8-8.2-1.8c-2.2,0-4.8,0.6-7.8,1.8
				s-5.4,1.8-7.2,1.8c-5.6,0-11-4.7-16.4-14.2c-5.4-9.3-8-18.5-8-27.5c0-8.3,2.1-15.2,6.2-20.4c4.1-5.3,9.3-7.9,15.5-7.9
				c2.7,0,5.9,0.6,9.7,1.7C1277.1,1199.2,1279.6,1199.8,1280.8,1199.8L1280.8,1199.8z M1297.5,1177.8c0,2.3-0.5,4.8-1.6,7.5
				c-1.1,2.7-2.8,5.2-5.1,7.5c-2,2-4,3.3-5.9,3.9c-1.2,0.4-3.1,0.7-5.6,0.9c0.1-5.4,1.5-10.1,4.2-14c2.8-3.9,7.3-6.6,13.7-8.1
				c0.1,0.5,0.2,0.9,0.3,1.2C1297.5,1177.1,1297.5,1177.4,1297.5,1177.8L1297.5,1177.8z"/>
		</g>
	</g>
	<g transform="translate(-339.71503,-22.000949)">
	</g>
</g>
<g transform="translate(-340.00073,-22.000949)">
</g>
<g transform="translate(-64.536524,2097.3869)">
	<g>
		<defs>
			<path id="SVGID_00000178926092145588264380000012807147962180533922_" d="M3228.1-2050.7c-43.4,0-62.3,13.3-62.3,62.3v64.7v990.8
				h1880v-990.8v-64.7c0-49-18.9-62.3-62.3-62.3H4850h-10.1H3357.5H3228.1z"/>
		</defs>
		<clipPath id="SVGID_00000162327753837205152160000013407657159320654748_">
			<use xlink:href="#SVGID_00000178926092145588264380000012807147962180533922_"  style="overflow:visible;"/>
		</clipPath>
		
			<linearGradient id="SVGID_00000018195008502920724510000004828820884953534369_" gradientUnits="userSpaceOnUse" x1="4752.1318" y1="1715.891" x2="5197.8271" y2="126.0926" gradientTransform="matrix(1 0 0 -1 -64.5365 -543.387)">
			<stop  offset="0" style="stop-color:#FFFFFF;stop-opacity:0.1961"/>
			<stop  offset="1" style="stop-color:#FFFFFF;stop-opacity:0"/>
		</linearGradient>
		
			<path style="clip-path:url(#SVGID_00000162327753837205152160000013407657159320654748_);fill:url(#SVGID_00000018195008502920724510000004828820884953534369_);" d="
			M4245.9-2062.9l632.5,1414l333.3,21.2l6.4-1511.3L4245.9-2062.9z"/>
	</g>
</g>
<g>
	<defs>
		<path id="SVGID_00000021080730139446058470000009986663510204655514_" d="M940,1247.3l189.2,5.9c-1.5,55.4,3.9,117.8,11.6,174.4
			c1.6,12,3.2,25.1,6,37.8c3.7,14.6,9.5,23.8,17.9,30.6c7,5.6,16,9.4,24.3,14c12.3,6.8,22.5,13.6,29.2,19c2.8,2.3,6,4.9,8.3,8.1
			c0.3,0.5,0.5,1,0.5,1.4c0,1.7-2.5,2.8-4.6,3.6c-7,2.3-20,3-35.6,3.2c-8.4,0.1-18.6-0.1-27.9-0.1H721.2c-9.3-0.1-19.5,0.1-27.9,0.1
			c-15.6-0.1-28.6-0.9-35.6-3.2c-2.2-0.8-4.6-1.8-4.6-3.6c0-0.4,0.1-0.9,0.5-1.4c2.4-3.2,5.5-5.8,8.3-8.1c6.7-5.4,16.8-12.2,29.2-19
			c8.3-4.7,17.4-8.4,24.3-14c8.3-6.8,14.2-16,17.9-30.6c2.8-12.7,4.4-25.8,6-37.8c7.7-56.6,13.1-119,11.6-174.4L940,1247.3z"/>
	</defs>
	<clipPath id="SVGID_00000147936494050371248160000008890961776706085817_">
		<use xlink:href="#SVGID_00000021080730139446058470000009986663510204655514_"  style="overflow:visible;"/>
	</clipPath>
	<path style="clip-path:url(#SVGID_00000147936494050371248160000008890961776706085817_);fill:#807F85;" d="M1226.9,1476.1
		c-31.4-4.7-58.2,5.7-82.9,16c98.9,40.7-65.9,50.5-47.5,64.4c18.4,13.9,145.1,33.6,163.6,44.1l-9.6-93.7L1226.9,1476.1z"/>
</g>
<linearGradient id="SVGID_00000136392514586299191790000005328800969731258556_" gradientUnits="userSpaceOnUse" x1="-7.324219e-04" y1="557.7489" x2="79.1321" y2="557.7489">
	<stop  offset="0" style="stop-color:#040404"/>
	<stop  offset="1" style="stop-color:#0A0A0A"/>
</linearGradient>
<path style="fill:url(#SVGID_00000136392514586299191790000005328800969731258556_);" d="M39.6,1115.5L39.6,1115.5
	c-21.9,0-39.6-17.7-39.6-39.6L0,39.6C0,17.7,17.7,0,39.6,0h0c21.9,0,39.6,17.7,39.6,39.6v1036.4
	C79.1,1097.8,61.4,1115.5,39.6,1115.5z"/>
<linearGradient id="SVGID_00000134227782301850975300000010622476966729263259_" gradientUnits="userSpaceOnUse" x1="1800.8665" y1="558.9209" x2="1879.9993" y2="558.9209">
	<stop  offset="0" style="stop-color:#040404"/>
	<stop  offset="1" style="stop-color:#0A0A0A"/>
</linearGradient>
<path style="fill:url(#SVGID_00000134227782301850975300000010622476966729263259_);" d="M1840.4,1116.7L1840.4,1116.7
	c-21.9,0-39.6-17.7-39.6-39.6V40.7c0-21.9,17.7-39.6,39.6-39.6l0,0c21.9,0,39.6,17.7,39.6,39.6v1036.4
	C1880,1099,1862.3,1116.7,1840.4,1116.7z"/>
<linearGradient id="SVGID_00000158742896619875772690000017750320432391213486_" gradientUnits="userSpaceOnUse" x1="1442.0452" y1="576.4259" x2="1521.178" y2="576.4259" gradientTransform="matrix(6.123234e-17 1 -1 6.123234e-17 1516.4252 -398.5833)">
	<stop  offset="0" style="stop-color:#040404"/>
	<stop  offset="1" style="stop-color:#0A0A0A"/>
</linearGradient>
<polygon style="fill:url(#SVGID_00000158742896619875772690000017750320432391213486_);" points="0,1122.6 0,1043.5 1880,1043.5 
	1880,1122.6 "/>
<linearGradient id="SVGID_00000124157237036053426260000010900181299824969614_" gradientUnits="userSpaceOnUse" x1="398.5833" y1="575.1453" x2="477.7162" y2="575.1453" gradientTransform="matrix(6.123234e-17 1 -1 6.123234e-17 1516.4252 -398.5833)">
	<stop  offset="0" style="stop-color:#040404"/>
	<stop  offset="1" style="stop-color:#0A0A0A"/>
</linearGradient>
<path style="fill:url(#SVGID_00000124157237036053426260000010900181299824969614_);" d="M8.6,39.6L8.6,39.6C8.6,17.7,26.4,0,48.2,0
	h1786.1c21.9,0,39.6,17.7,39.6,39.6v0c0,21.9-17.7,39.6-39.6,39.6H48.2C26.4,79.1,8.6,61.4,8.6,39.6z"/>
</svg>
