<?xml version="1.0" encoding="utf-8"?>
<!-- Generator: Adobe Illustrator 27.4.1, SVG Export Plug-In . SVG Version: 6.00 Build 0)  -->
<svg version="1.1" id="Layer_1" xmlns="http://www.w3.org/2000/svg" xmlns:xlink="http://www.w3.org/1999/xlink" x="0px" y="0px"
	 viewBox="0 0 800 647" style="enable-background:new 0 0 800 647;" xml:space="preserve">
<style type="text/css">
	.st0{fill-rule:evenodd;clip-rule:evenodd;}
</style>
<g id="Page-1">
	<g id="Apple-Icons" transform="translate(-120.000000, -446.000000)">
		<g id="_x31_28px" transform="translate(120.000000, 224.000000)">
			<path id="Cinema-Display" class="st0" d="M400,701c-3.4,0-6.2,2.8-6.2,6.2s2.8,6.2,6.2,6.2c3.5,0,6.2-2.8,6.2-6.2
				S403.5,701,400,701L400,701z M756.2,669c0,10.8-8.8,19.5-19.5,19.5H63.3c-10.8,0-19.5-8.8-19.5-19.5V295.5
				c0-10.8,8.8-19.5,19.5-19.5h673.5c10.8,0,19.5,8.8,19.5,19.5V669z M736.7,269.7H63.3c-14.2,0-25.8,11.5-25.8,25.8V669
				c0,14.2,11.5,25.8,25.8,25.8h673.5c14.2,0,25.8-11.5,25.8-25.8V295.5C762.5,281.3,751,269.7,736.7,269.7L736.7,269.7z
				 M787.5,693.8c0,14.3-11.6,26-26,26H38.5c-14.3,0-26-11.7-26-26v-423c0-14.3,11.6-26,26-26h723.1c14.3,0,26,11.6,26,26V693.8z
				 M495.9,832.2H304.1c21.7-43,27.2-89.1,27.2-100h137.5C468.8,743.1,474.2,789.2,495.9,832.2L495.9,832.2z M531.2,838.5v3.4
				c0,5-4.1,9.1-9.1,9.1H277.8c-5,0-9.1-4.1-9.1-9.1v-3.4H531.2z M761.5,232.2H38.5C17.3,232.2,0,249.5,0,270.7v423
				c0,21.2,17.3,38.5,38.5,38.5H325c0,10.7-5.6,56.8-27.9,100h-34.6v9.7c0,8.4,6.9,15.3,15.3,15.3h244.4c8.4,0,15.3-6.9,15.3-15.3
				v-9.7h-34.6C480.6,789,475,743,475,732.2h286.5c21.2,0,38.5-17.3,38.5-38.5v-423C800,249.5,782.7,232.2,761.5,232.2L761.5,232.2z
				"/>
		</g>
	</g>
</g>
</svg>
